<svg width="32" height="32" viewBox="0 0 32 32" fill="none" xmlns="http://www.w3.org/2000/svg">
<path d="M25 4C25.5691 4 26.1325 4.11208 26.6583 4.32986C27.184 4.54763 27.6617 4.86682 28.0641 5.2692C28.4665 5.67159 28.7857 6.14929 29.0035 6.67504C29.2212 7.20078 29.3333 7.76427 29.3333 8.33333V23.6667C29.3333 24.2357 29.2212 24.7992 29.0035 25.325C28.7857 25.8507 28.4665 26.3284 28.0641 26.7308C27.6617 27.1332 27.184 27.4524 26.6583 27.6701C26.1325 27.8879 25.5691 28 25 28H6.99999C5.85072 28 4.74852 27.5435 3.93586 26.7308C3.1232 25.9181 2.66666 24.8159 2.66666 23.6667V8.33333C2.66666 7.18406 3.1232 6.08186 3.93586 5.2692C4.74852 4.45655 5.85072 4 6.99999 4H25ZM25 6H6.99999C6.38115 6 5.78766 6.24583 5.35007 6.68342C4.91249 7.121 4.66666 7.71449 4.66666 8.33333V23.6667C4.66666 24.9547 5.71199 26 6.99999 26H25C25.6188 26 26.2123 25.7542 26.6499 25.3166C27.0875 24.879 27.3333 24.2855 27.3333 23.6667V8.33333C27.3333 7.71449 27.0875 7.121 26.6499 6.68342C26.2123 6.24583 25.6188 6 25 6ZM8.99732 8.66667H23.0053C23.2587 8.66674 23.5026 8.76299 23.6877 8.93596C23.8728 9.10893 23.9854 9.34573 24.0027 9.59851C24.02 9.85128 23.9406 10.1012 23.7807 10.2977C23.6209 10.4943 23.3923 10.6228 23.1413 10.6573L23.0053 10.6667H8.99732C8.74407 10.6663 8.50041 10.5698 8.31553 10.3967C8.13065 10.2236 8.01833 9.98684 8.00123 9.73416C7.98414 9.48149 8.06355 9.23174 8.22344 9.03534C8.38332 8.83894 8.61177 8.71052 8.86266 8.676L8.99732 8.66667H23.0053H8.99732V8.66667Z" fill="#282828"/>
</svg>
